<svg xmlns="http://www.w3.org/2000/svg" xmlns:xlink="http://www.w3.org/1999/xlink" width="500" zoomAndPan="magnify" viewBox="0 0 375 374.999991" height="500" preserveAspectRatio="xMidYMid meet" version="1.0"><defs><filter x="0%" y="0%" width="100%" height="100%" id="e8c91c6acd"><feColorMatrix values="0 0 0 0 1 0 0 0 0 1 0 0 0 0 1 0 0 0 1 0" color-interpolation-filters="sRGB"/></filter><g/><mask id="77673571fc"><g filter="url(#e8c91c6acd)"><rect x="-37.5" width="450" fill="#000000" y="-37.499999" height="449.999989" fill-opacity="0.07"/></g></mask><clipPath id="f981bc6f89"><rect x="0" width="126" y="0" height="255"/></clipPath><mask id="ec637fed0f"><g filter="url(#e8c91c6acd)"><rect x="-37.5" width="450" fill="#000000" y="-37.499999" height="449.999989" fill-opacity="0.07"/></g></mask><clipPath id="36cb7c466b"><rect x="0" width="126" y="0" height="255"/></clipPath></defs><g fill="#5b5562" fill-opacity="1"><g transform="translate(121.95004, 39.332184)"><g><path d="M -0.828125 31.921875 C -0.828125 26.515625 0.226562 21.765625 2.34375 17.671875 C 4.457031 13.585938 7.421875 10.4375 11.234375 8.21875 C 15.046875 6 19.445312 4.890625 24.4375 4.890625 L 48.453125 4.890625 C 53.441406 4.890625 57.84375 6 61.65625 8.21875 C 65.46875 10.4375 68.410156 13.585938 70.484375 17.671875 C 72.566406 21.765625 73.609375 26.515625 73.609375 31.921875 C 73.609375 37.253906 72.617188 41.945312 70.640625 46 C 68.671875 50.0625 65.863281 53.21875 62.21875 55.46875 C 58.582031 57.71875 54.375 58.84375 49.59375 58.84375 C 48.96875 58.84375 48.585938 58.289062 48.453125 57.1875 L 47.71875 46.0625 L 47.71875 45.640625 C 47.71875 44.671875 47.890625 44.1875 48.234375 44.1875 L 48.859375 44.1875 C 52.535156 44.1875 55.484375 43.054688 57.703125 40.796875 C 59.921875 38.546875 61.03125 35.585938 61.03125 31.921875 C 61.03125 28.171875 59.921875 25.171875 57.703125 22.921875 C 55.484375 20.671875 52.535156 19.546875 48.859375 19.546875 L 23.8125 19.546875 C 20.207031 19.546875 17.296875 20.671875 15.078125 22.921875 C 12.859375 25.171875 11.75 28.171875 11.75 31.921875 C 11.75 35.585938 12.859375 38.546875 15.078125 40.796875 C 17.296875 43.054688 20.207031 44.1875 23.8125 44.1875 C 24.15625 44.1875 24.445312 44.34375 24.6875 44.65625 C 24.9375 44.96875 25.023438 45.398438 24.953125 45.953125 L 24.4375 57.078125 C 24.289062 58.253906 24.113281 58.84375 23.90625 58.84375 L 23.390625 58.84375 C 18.609375 58.84375 14.378906 57.71875 10.703125 55.46875 C 7.035156 53.21875 4.195312 50.0625 2.1875 46 C 0.175781 41.945312 -0.828125 37.253906 -0.828125 31.921875 Z M -0.828125 31.921875 "/></g></g></g><g fill="#5b5562" fill-opacity="1"><g transform="translate(121.95004, 102.53807)"><g><path d="M -1.140625 32.234375 C -1.140625 26.828125 -0.03125 22.0625 2.1875 17.9375 C 4.40625 13.8125 7.503906 10.601562 11.484375 8.3125 C 15.472656 6.03125 20.066406 4.890625 25.265625 4.890625 L 47.515625 4.890625 C 52.640625 4.890625 57.175781 6.03125 61.125 8.3125 C 65.082031 10.601562 68.148438 13.8125 70.328125 17.9375 C 72.515625 22.0625 73.609375 26.828125 73.609375 32.234375 C 73.609375 37.703125 72.515625 42.5 70.328125 46.625 C 68.148438 50.75 65.082031 53.953125 61.125 56.234375 C 57.175781 58.523438 52.640625 59.671875 47.515625 59.671875 L 25.265625 59.671875 C 20.066406 59.671875 15.457031 58.523438 11.4375 56.234375 C 7.414062 53.953125 4.3125 50.75 2.125 46.625 C -0.0507812 42.5 -1.140625 37.703125 -1.140625 32.234375 Z M 11.4375 32.234375 C 11.4375 36.046875 12.648438 39.128906 15.078125 41.484375 C 17.503906 43.835938 20.726562 45.015625 24.75 45.015625 L 47.625 45.015625 C 51.632812 45.015625 54.867188 43.851562 57.328125 41.53125 C 59.796875 39.207031 61.03125 36.109375 61.03125 32.234375 C 61.03125 28.421875 59.796875 25.351562 57.328125 23.03125 C 54.867188 20.707031 51.632812 19.546875 47.625 19.546875 L 24.75 19.546875 C 20.726562 19.546875 17.503906 20.707031 15.078125 23.03125 C 12.648438 25.351562 11.4375 28.421875 11.4375 32.234375 Z M 11.4375 32.234375 "/></g></g></g><g fill="#5b5562" fill-opacity="1"><g transform="translate(121.95004, 167.095401)"><g><path d="M 0 8.109375 C 0 6.929688 0.585938 6.34375 1.765625 6.34375 L 71.015625 6.34375 C 72.191406 6.34375 72.78125 6.929688 72.78125 8.109375 L 72.78125 33.578125 C 72.78125 38.773438 71.859375 43.332031 70.015625 47.25 C 68.179688 51.164062 65.597656 54.195312 62.265625 56.34375 C 58.941406 58.5 55.097656 59.578125 50.734375 59.578125 L 22.046875 59.578125 C 17.671875 59.578125 13.820312 58.5 10.5 56.34375 C 7.175781 54.195312 4.59375 51.164062 2.75 47.25 C 0.914062 43.332031 0 38.773438 0 33.578125 Z M 13.203125 21 C 12.785156 21 12.578125 21.207031 12.578125 21.625 L 12.578125 34.109375 C 12.578125 37.296875 13.648438 39.875 15.796875 41.84375 C 17.953125 43.820312 20.832031 44.847656 24.4375 44.921875 L 48.34375 44.921875 C 51.945312 44.921875 54.820312 43.929688 56.96875 41.953125 C 59.125 39.972656 60.203125 37.320312 60.203125 34 L 60.203125 21.625 C 60.203125 21.207031 59.992188 21 59.578125 21 Z M 13.203125 21 "/></g></g></g><g fill="#5b5562" fill-opacity="1"><g transform="translate(121.95004, 231.340869)"><g><path d="M 61.96875 56.875 C 60.789062 56.875 60.203125 56.285156 60.203125 55.109375 L 60.203125 21.625 C 60.203125 21.207031 59.992188 21 59.578125 21 L 43.671875 21 C 43.253906 21 43.046875 21.207031 43.046875 21.625 L 43.046875 43.359375 C 43.046875 44.535156 42.457031 45.125 41.28125 45.125 L 32.234375 45.125 C 31.054688 45.125 30.46875 44.535156 30.46875 43.359375 L 30.46875 21.625 C 30.46875 21.207031 30.257812 21 29.84375 21 L 13.203125 21 C 12.785156 21 12.578125 21.207031 12.578125 21.625 L 12.578125 55.109375 C 12.578125 56.285156 11.988281 56.875 10.8125 56.875 L 1.765625 56.875 C 0.585938 56.875 0 56.285156 0 55.109375 L 0 8.109375 C 0 6.929688 0.585938 6.34375 1.765625 6.34375 L 71.015625 6.34375 C 72.191406 6.34375 72.78125 6.929688 72.78125 8.109375 L 72.78125 55.109375 C 72.78125 56.285156 72.191406 56.875 71.015625 56.875 Z M 61.96875 56.875 "/></g></g></g><path stroke-linecap="butt" transform="matrix(0, 0.75, -0.75, 0, 250.734245, 32.999002)" fill="none" stroke-linejoin="miter" d="M 50.912793 125.119626 C 43.709667 125.119626 37.376333 123.708168 31.912791 120.885251 C 26.470083 118.062334 22.272166 114.109209 19.313832 109.031084 C 16.360707 103.926917 14.88154 98.046708 14.88154 91.390457 L 14.88154 59.353997 C 14.88154 52.692538 16.360707 46.822746 19.313832 41.744621 C 22.272166 36.661287 26.470083 32.734204 31.912791 29.958162 C 37.376333 27.18212 43.709667 25.791495 50.912793 25.791495 C 58.04821 25.791495 64.308627 27.114412 69.70446 29.755037 C 75.126336 32.395662 79.334669 36.145662 82.339878 40.999829 C 85.339878 45.853996 86.839878 51.463371 86.839878 57.827955 C 86.839878 58.661289 86.110712 59.171705 84.641961 59.353997 L 69.808627 60.333164 L 69.230502 60.333164 C 67.944044 60.333164 67.303419 60.098789 67.303419 59.62483 L 67.303419 58.81233 C 67.303419 53.911288 65.803419 49.984205 62.79821 47.025871 C 59.793001 44.067538 55.834668 42.588371 50.912793 42.588371 C 45.923209 42.588371 41.928417 44.067538 38.923208 47.025871 C 35.923208 49.984205 34.418 53.911288 34.418 58.81233 L 34.418 92.234208 C 34.418 97.041499 35.923208 100.926916 38.923208 103.88525 C 41.928417 106.843583 45.923209 108.32275 50.912793 108.32275 C 55.834668 108.32275 59.793001 106.843583 62.79821 103.88525 C 65.803419 100.926916 67.303419 97.041499 67.303419 92.234208 C 67.303419 91.781082 67.506544 91.400874 67.912794 91.083166 C 68.339877 90.744624 68.918002 90.619624 69.636752 90.713374 L 84.506545 91.390457 C 86.063837 91.593582 86.839878 91.827957 86.839878 92.098791 L 86.839878 92.775874 C 86.839878 99.1665 85.339878 104.812333 82.339878 109.708167 C 79.334669 114.609209 75.126336 118.400876 69.70446 121.088376 C 64.308627 123.775876 58.04821 125.119626 50.912793 125.119626 Z M 135.683631 125.525876 C 128.459673 125.525876 122.089881 124.04671 116.584672 121.088376 C 111.095088 118.130043 106.829463 113.999834 103.782588 108.692542 C 100.735713 103.364417 99.209671 97.234208 99.209671 90.307124 L 99.209671 60.603997 C 99.209671 53.765455 100.735713 47.713371 103.782588 42.452954 C 106.829463 37.171704 111.095088 33.072745 116.584672 30.161287 C 122.089881 27.249828 128.459673 25.791495 135.683631 25.791495 C 142.975299 25.791495 149.376341 27.249828 154.886758 30.161287 C 160.391966 33.072745 164.673217 37.171704 167.720092 42.452954 C 170.766967 47.713371 172.293009 53.765455 172.293009 60.603997 L 172.293009 90.307124 C 172.293009 97.234208 170.766967 103.38525 167.720092 108.76025 C 164.673217 114.109209 160.391966 118.244626 154.886758 121.156084 C 149.376341 124.067543 142.975299 125.525876 135.683631 125.525876 Z M 135.683631 108.729 C 140.761757 108.729 144.871132 107.114417 148.011757 103.88525 C 151.173216 100.656083 152.751341 96.353999 152.751341 90.984207 L 152.751341 60.46858 C 152.751341 55.098788 151.194049 50.770663 148.079466 47.49983 C 144.985715 44.223788 140.855507 42.588371 135.683631 42.588371 C 130.579464 42.588371 126.485714 44.223788 123.391964 47.49983 C 120.298214 50.770663 118.751339 55.098788 118.751339 60.46858 L 118.751339 90.984207 C 118.751339 96.353999 120.298214 100.656083 123.391964 103.88525 C 126.485714 107.114417 130.579464 108.729 135.683631 108.729 Z M 189.610718 123.999835 C 188.053427 123.999835 187.277385 123.208168 187.277385 121.630043 L 187.277385 29.24462 C 187.277385 27.687328 188.053427 26.911287 189.610718 26.911287 L 223.610721 26.911287 C 230.543013 26.911287 236.61593 28.140453 241.83468 30.598787 C 247.069055 33.041495 251.121139 36.484204 253.990931 40.932121 C 256.855514 45.353996 258.293015 50.478996 258.293015 56.301913 L 258.293015 94.603999 C 258.293015 100.432125 256.855514 105.567542 253.990931 110.015459 C 251.121139 114.437334 247.069055 117.880043 241.83468 120.343584 C 236.61593 122.781085 230.543013 123.999835 223.610721 123.999835 Z M 206.813844 106.390458 C 206.813844 106.932125 207.100303 107.202958 207.662803 107.202958 L 224.287804 107.202958 C 228.558638 107.202958 232.001346 105.770667 234.621138 102.900875 C 237.261763 100.036291 238.626347 96.197749 238.714888 91.390457 L 238.714888 59.489414 C 238.714888 54.676913 237.39718 50.838371 234.756555 47.973788 C 232.136763 45.103996 228.600304 43.671704 224.152387 43.671704 L 207.662803 43.671704 C 207.100303 43.671704 206.813844 43.952954 206.813844 44.520663 Z M 340.41802 41.338371 C 340.41802 42.895663 339.631562 43.671704 338.048228 43.671704 L 293.381558 43.671704 C 292.819058 43.671704 292.5326 43.952954 292.5326 44.520663 L 292.5326 65.755039 C 292.5326 66.296706 292.819058 66.567539 293.381558 66.567539 L 322.371144 66.567539 C 323.949269 66.567539 324.740936 67.353998 324.740936 68.937331 L 324.740936 80.989415 C 324.740936 82.572749 323.949269 83.364415 322.371144 83.364415 L 293.381558 83.364415 C 292.819058 83.364415 292.5326 83.635249 292.5326 84.176915 L 292.5326 106.390458 C 292.5326 106.932125 292.819058 107.202958 293.381558 107.202958 L 338.048228 107.202958 C 339.631562 107.202958 340.41802 107.994625 340.41802 109.57275 L 340.41802 121.630043 C 340.41802 123.208168 339.631562 123.999835 338.048228 123.999835 L 275.329474 123.999835 C 273.772182 123.999835 272.99614 123.208168 272.99614 121.630043 L 272.99614 29.24462 C 272.99614 27.687328 273.772182 26.911287 275.329474 26.911287 L 338.048228 26.911287 C 339.631562 26.911287 340.41802 27.687328 340.41802 29.24462 Z M 340.41802 41.338371 " stroke="#ff3c5f" stroke-width="3.81458" stroke-opacity="1" stroke-miterlimit="4"/><g mask="url(#77673571fc)"><g transform="matrix(1, 0, 0, 1, 181, 40)"><g clip-path="url(#f981bc6f89)"><g fill="#ffffff" fill-opacity="1"><g transform="translate(22.269837, 0.598636)"><g><path d="M -0.828125 32.078125 C -0.828125 26.640625 0.226562 21.863281 2.34375 17.75 C 4.46875 13.644531 7.445312 10.476562 11.28125 8.25 C 15.113281 6.019531 19.535156 4.90625 24.546875 4.90625 L 48.6875 4.90625 C 53.695312 4.90625 58.117188 6.019531 61.953125 8.25 C 65.785156 10.476562 68.742188 13.644531 70.828125 17.75 C 72.921875 21.863281 73.96875 26.640625 73.96875 32.078125 C 73.96875 37.429688 72.972656 42.144531 70.984375 46.21875 C 69.003906 50.300781 66.1875 53.472656 62.53125 55.734375 C 58.875 57.992188 54.640625 59.125 49.828125 59.125 C 49.203125 59.125 48.820312 58.566406 48.6875 57.453125 L 47.953125 46.28125 L 47.953125 45.859375 C 47.953125 44.890625 48.125 44.40625 48.46875 44.40625 L 49.09375 44.40625 C 52.789062 44.40625 55.753906 43.269531 57.984375 41 C 60.210938 38.738281 61.328125 35.765625 61.328125 32.078125 C 61.328125 28.316406 60.210938 25.300781 57.984375 23.03125 C 55.753906 20.769531 52.789062 19.640625 49.09375 19.640625 L 23.921875 19.640625 C 20.296875 19.640625 17.367188 20.769531 15.140625 23.03125 C 12.921875 25.300781 11.8125 28.316406 11.8125 32.078125 C 11.8125 35.765625 12.921875 38.738281 15.140625 41 C 17.367188 43.269531 20.296875 44.40625 23.921875 44.40625 C 24.273438 44.40625 24.570312 44.5625 24.8125 44.875 C 25.050781 45.1875 25.140625 45.617188 25.078125 46.171875 L 24.546875 57.359375 C 24.410156 58.535156 24.238281 59.125 24.03125 59.125 L 23.5 59.125 C 18.695312 59.125 14.445312 57.992188 10.75 55.734375 C 7.0625 53.472656 4.207031 50.300781 2.1875 46.21875 C 0.175781 42.144531 -0.828125 37.429688 -0.828125 32.078125 Z M -0.828125 32.078125 "/></g></g></g><g fill="#ffffff" fill-opacity="1"><g transform="translate(22.269837, 64.1193)"><g><path d="M -1.15625 32.390625 C -1.15625 26.953125 -0.0390625 22.160156 2.1875 18.015625 C 4.414062 13.878906 7.53125 10.660156 11.53125 8.359375 C 15.539062 6.054688 20.160156 4.90625 25.390625 4.90625 L 47.75 4.90625 C 52.894531 4.90625 57.453125 6.054688 61.421875 8.359375 C 65.390625 10.660156 68.472656 13.878906 70.671875 18.015625 C 72.867188 22.160156 73.96875 26.953125 73.96875 32.390625 C 73.96875 37.890625 72.867188 42.707031 70.671875 46.84375 C 68.472656 50.988281 65.390625 54.210938 61.421875 56.515625 C 57.453125 58.816406 52.894531 59.96875 47.75 59.96875 L 25.390625 59.96875 C 20.160156 59.96875 15.523438 58.816406 11.484375 56.515625 C 7.453125 54.210938 4.335938 50.988281 2.140625 46.84375 C -0.0546875 42.707031 -1.15625 37.890625 -1.15625 32.390625 Z M 11.484375 32.390625 C 11.484375 36.210938 12.703125 39.304688 15.140625 41.671875 C 17.578125 44.046875 20.816406 45.234375 24.859375 45.234375 L 47.84375 45.234375 C 51.882812 45.234375 55.140625 44.066406 57.609375 41.734375 C 60.085938 39.398438 61.328125 36.285156 61.328125 32.390625 C 61.328125 28.554688 60.085938 25.472656 57.609375 23.140625 C 55.140625 20.804688 51.882812 19.640625 47.84375 19.640625 L 24.859375 19.640625 C 20.816406 19.640625 17.578125 20.804688 15.140625 23.140625 C 12.703125 25.472656 11.484375 28.554688 11.484375 32.390625 Z M 11.484375 32.390625 "/></g></g></g><g fill="#ffffff" fill-opacity="1"><g transform="translate(22.269837, 128.998141)"><g><path d="M 0 8.15625 C 0 6.96875 0.59375 6.375 1.78125 6.375 L 71.359375 6.375 C 72.535156 6.375 73.125 6.96875 73.125 8.15625 L 73.125 33.75 C 73.125 38.96875 72.203125 43.546875 70.359375 47.484375 C 68.515625 51.421875 65.921875 54.46875 62.578125 56.625 C 59.234375 58.78125 55.367188 59.859375 50.984375 59.859375 L 22.140625 59.859375 C 17.753906 59.859375 13.890625 58.78125 10.546875 56.625 C 7.203125 54.46875 4.609375 51.421875 2.765625 47.484375 C 0.921875 43.546875 0 38.96875 0 33.75 Z M 13.265625 21.109375 C 12.847656 21.109375 12.640625 21.316406 12.640625 21.734375 L 12.640625 34.265625 C 12.640625 37.472656 13.71875 40.066406 15.875 42.046875 C 18.039062 44.035156 20.929688 45.0625 24.546875 45.125 L 48.578125 45.125 C 52.203125 45.125 55.09375 44.128906 57.25 42.140625 C 59.40625 40.160156 60.484375 37.5 60.484375 34.15625 L 60.484375 21.734375 C 60.484375 21.316406 60.273438 21.109375 59.859375 21.109375 Z M 13.265625 21.109375 "/></g></g></g><g fill="#ffffff" fill-opacity="1"><g transform="translate(22.269837, 193.563551)"><g><path d="M 62.265625 57.140625 C 61.078125 57.140625 60.484375 56.550781 60.484375 55.375 L 60.484375 21.734375 C 60.484375 21.316406 60.273438 21.109375 59.859375 21.109375 L 43.875 21.109375 C 43.457031 21.109375 43.25 21.316406 43.25 21.734375 L 43.25 43.5625 C 43.25 44.75 42.65625 45.34375 41.46875 45.34375 L 32.390625 45.34375 C 31.203125 45.34375 30.609375 44.75 30.609375 43.5625 L 30.609375 21.734375 C 30.609375 21.316406 30.398438 21.109375 29.984375 21.109375 L 13.265625 21.109375 C 12.847656 21.109375 12.640625 21.316406 12.640625 21.734375 L 12.640625 55.375 C 12.640625 56.550781 12.046875 57.140625 10.859375 57.140625 L 1.78125 57.140625 C 0.59375 57.140625 0 56.550781 0 55.375 L 0 8.15625 C 0 6.96875 0.59375 6.375 1.78125 6.375 L 71.359375 6.375 C 72.535156 6.375 73.125 6.96875 73.125 8.15625 L 73.125 55.375 C 73.125 56.550781 72.535156 57.140625 71.359375 57.140625 Z M 62.265625 57.140625 "/></g></g></g></g></g></g><g mask="url(#ec637fed0f)"><g transform="matrix(1, 0, 0, 1, 65, 40)"><g clip-path="url(#36cb7c466b)"><g fill="#ffffff" fill-opacity="1"><g transform="translate(22.050464, 0.679212)"><g><path d="M -0.828125 32.046875 C -0.828125 26.617188 0.226562 21.851562 2.34375 17.75 C 4.46875 13.644531 7.441406 10.476562 11.265625 8.25 C 15.097656 6.019531 19.519531 4.90625 24.53125 4.90625 L 48.65625 4.90625 C 53.664062 4.90625 58.082031 6.019531 61.90625 8.25 C 65.738281 10.476562 68.695312 13.644531 70.78125 17.75 C 72.875 21.851562 73.921875 26.617188 73.921875 32.046875 C 73.921875 37.410156 72.925781 42.128906 70.9375 46.203125 C 68.957031 50.273438 66.140625 53.441406 62.484375 55.703125 C 58.828125 57.960938 54.597656 59.09375 49.796875 59.09375 C 49.171875 59.09375 48.789062 58.535156 48.65625 57.421875 L 47.921875 46.25 L 47.921875 45.828125 C 47.921875 44.859375 48.09375 44.375 48.4375 44.375 L 49.078125 44.375 C 52.765625 44.375 55.71875 43.242188 57.9375 40.984375 C 60.164062 38.722656 61.28125 35.742188 61.28125 32.046875 C 61.28125 28.296875 60.164062 25.285156 57.9375 23.015625 C 55.71875 20.753906 52.765625 19.625 49.078125 19.625 L 23.90625 19.625 C 20.289062 19.625 17.367188 20.753906 15.140625 23.015625 C 12.910156 25.285156 11.796875 28.296875 11.796875 32.046875 C 11.796875 35.742188 12.910156 38.722656 15.140625 40.984375 C 17.367188 43.242188 20.289062 44.375 23.90625 44.375 C 24.257812 44.375 24.554688 44.53125 24.796875 44.84375 C 25.035156 45.15625 25.125 45.585938 25.0625 46.140625 L 24.53125 57.3125 C 24.394531 58.5 24.222656 59.09375 24.015625 59.09375 L 23.484375 59.09375 C 18.679688 59.09375 14.4375 57.960938 10.75 55.703125 C 7.0625 53.441406 4.207031 50.273438 2.1875 46.203125 C 0.175781 42.128906 -0.828125 37.410156 -0.828125 32.046875 Z M -0.828125 32.046875 "/></g></g></g><g fill="#ffffff" fill-opacity="1"><g transform="translate(22.050464, 64.161021)"><g><path d="M -1.15625 32.359375 C -1.15625 26.929688 -0.0390625 22.144531 2.1875 18 C 4.414062 13.863281 7.53125 10.644531 11.53125 8.34375 C 15.539062 6.050781 20.15625 4.90625 25.375 4.90625 L 47.71875 4.90625 C 52.863281 4.90625 57.421875 6.050781 61.390625 8.34375 C 65.359375 10.644531 68.4375 13.863281 70.625 18 C 72.820312 22.144531 73.921875 26.929688 73.921875 32.359375 C 73.921875 37.859375 72.820312 42.675781 70.625 46.8125 C 68.4375 50.957031 65.359375 54.175781 61.390625 56.46875 C 57.421875 58.769531 52.863281 59.921875 47.71875 59.921875 L 25.375 59.921875 C 20.15625 59.921875 15.523438 58.769531 11.484375 56.46875 C 7.441406 54.175781 4.320312 50.957031 2.125 46.8125 C -0.0625 42.675781 -1.15625 37.859375 -1.15625 32.359375 Z M 11.484375 32.359375 C 11.484375 36.191406 12.703125 39.289062 15.140625 41.65625 C 17.578125 44.019531 20.8125 45.203125 24.84375 45.203125 L 47.8125 45.203125 C 51.851562 45.203125 55.109375 44.035156 57.578125 41.703125 C 60.046875 39.378906 61.28125 36.265625 61.28125 32.359375 C 61.28125 28.535156 60.046875 25.457031 57.578125 23.125 C 55.109375 20.789062 51.851562 19.625 47.8125 19.625 L 24.84375 19.625 C 20.8125 19.625 17.578125 20.789062 15.140625 23.125 C 12.703125 25.457031 11.484375 28.535156 11.484375 32.359375 Z M 11.484375 32.359375 "/></g></g></g><g fill="#ffffff" fill-opacity="1"><g transform="translate(22.050464, 129.000164)"><g><path d="M 0 8.140625 C 0 6.960938 0.59375 6.375 1.78125 6.375 L 71.3125 6.375 C 72.488281 6.375 73.078125 6.960938 73.078125 8.140625 L 73.078125 33.71875 C 73.078125 38.9375 72.15625 43.515625 70.3125 47.453125 C 68.46875 51.390625 65.875 54.4375 62.53125 56.59375 C 59.195312 58.75 55.335938 59.828125 50.953125 59.828125 L 22.140625 59.828125 C 17.753906 59.828125 13.890625 58.75 10.546875 56.59375 C 7.203125 54.4375 4.609375 51.390625 2.765625 47.453125 C 0.921875 43.515625 0 38.9375 0 33.71875 Z M 13.265625 21.09375 C 12.847656 21.09375 12.640625 21.300781 12.640625 21.71875 L 12.640625 34.25 C 12.640625 37.445312 13.71875 40.035156 15.875 42.015625 C 18.03125 44.003906 20.914062 45.035156 24.53125 45.109375 L 48.546875 45.109375 C 52.171875 45.109375 55.0625 44.113281 57.21875 42.125 C 59.375 40.144531 60.453125 37.484375 60.453125 34.140625 L 60.453125 21.71875 C 60.453125 21.300781 60.242188 21.09375 59.828125 21.09375 Z M 13.265625 21.09375 "/></g></g></g><g fill="#ffffff" fill-opacity="1"><g transform="translate(22.050464, 193.526079)"><g><path d="M 62.21875 57.109375 C 61.039062 57.109375 60.453125 56.515625 60.453125 55.328125 L 60.453125 21.71875 C 60.453125 21.300781 60.242188 21.09375 59.828125 21.09375 L 43.84375 21.09375 C 43.425781 21.09375 43.21875 21.300781 43.21875 21.71875 L 43.21875 43.53125 C 43.21875 44.71875 42.628906 45.3125 41.453125 45.3125 L 32.359375 45.3125 C 31.179688 45.3125 30.59375 44.71875 30.59375 43.53125 L 30.59375 21.71875 C 30.59375 21.300781 30.382812 21.09375 29.96875 21.09375 L 13.265625 21.09375 C 12.847656 21.09375 12.640625 21.300781 12.640625 21.71875 L 12.640625 55.328125 C 12.640625 56.515625 12.046875 57.109375 10.859375 57.109375 L 1.78125 57.109375 C 0.59375 57.109375 0 56.515625 0 55.328125 L 0 8.140625 C 0 6.960938 0.59375 6.375 1.78125 6.375 L 71.3125 6.375 C 72.488281 6.375 73.078125 6.960938 73.078125 8.140625 L 73.078125 55.328125 C 73.078125 56.515625 72.488281 57.109375 71.3125 57.109375 Z M 62.21875 57.109375 "/></g></g></g></g></g></g></svg>